<svg xmlns="http://www.w3.org/2000/svg" width="193" height="70" xml:space="preserve"><g fill="#FFF"><path d="M14.22 54.362c0 1.211.984 2.12 2.119 2.12h3.482c1.136 0 2.12-.909 2.12-2.12v-9.01c0-1.892-.379-3.634-1.59-5.071l-8.63-10.524c-1.817-2.271-2.499-5.071-2.499-8.023v-6.133c0-3.861 3.255-7.116 7.116-7.116h3.482c3.861 0 7.116 3.18 7.116 7.116v5.905H21.94v-5.905c0-1.135-.984-2.12-2.12-2.12h-3.482c-1.135 0-2.119.985-2.119 2.12v6.133c0 1.892.378 3.558 1.59 5.072l8.555 10.522c1.893 2.271 2.573 5.072 2.573 8.024v9.01c0 3.937-3.255 7.116-7.116 7.116h-3.482a7.108 7.108 0 0 1-7.116-7.116v-8.101h4.997v8.101zM42.987 13.48v47.998h-4.996V13.48h-6.132V8.484H49.12v4.996h-6.133zM73.269 54.362a7.108 7.108 0 0 1-7.117 7.116h-4.997c-3.86 0-7.116-3.18-7.116-7.116V15.601c0-3.937 3.255-7.116 7.116-7.116h4.997a7.109 7.109 0 0 1 7.117 7.116v38.761zM66.152 13.48h-4.997c-1.135 0-2.12.985-2.12 2.12v38.762c0 1.211.984 2.12 2.12 2.12h4.997c1.136 0 2.12-.909 2.12-2.12V15.601c0-1.135-.984-2.121-2.12-2.121zM90.604 8.484c3.861 0 7.116 3.255 7.116 7.116v10.447c0 3.18-1.287 5.375-4.466 6.89 3.029.681 4.466 2.952 4.466 5.678v22.863h-4.996V38.994c0-2.574-1.287-3.786-3.785-3.786h-4.618v26.271h-4.997V8.484h11.28zM88.182 30.59c3.104 0 4.542-1.665 4.542-4.845V15.601c0-1.135-.984-2.12-2.12-2.12H84.32V30.59h3.862zM108.773 13.48v17.11h8.251v4.618h-8.251v21.274h9.388v4.996h-14.385V8.484h14.459v4.996h-9.462zM122.02 61.479l7.192-52.994h9.009l7.192 52.994h-4.997l-2.271-15.596h-8.857l-2.196 15.596h-5.072zm11.507-48.074-3.709 27.859h7.798l-3.709-27.859h-.38zM154.952 56.482h9.387v4.996h-14.384V8.484h4.997v47.998zM174.633 56.482h9.388v4.996h-14.385V8.484h4.997v47.998z"/></g></svg>